<svg xmlns="http://www.w3.org/2000/svg" version="1.1" xmlns:xlink="http://www.w3.org/1999/xlink" xmlns:svgjs="http://svgjs.dev/svgjs" width="1500" height="507" viewBox="0 0 1500 507"><g transform="matrix(1,0,0,1,-0.9090909090909918,0.8097170643523839)"><svg viewBox="0 0 396 134" data-background-color="#fefbf6" preserveAspectRatio="xMidYMid meet" height="507" width="1500" xmlns="http://www.w3.org/2000/svg" xmlns:xlink="http://www.w3.org/1999/xlink"><g id="tight-bounds" transform="matrix(1,0,0,1,0.2400000000000091,-0.21400806040082898)"><svg viewBox="0 0 395.52 134.42801612080166" height="134.42801612080166" width="395.52"><g><svg viewBox="0 0 667.6081464117683 226.90442624448755" height="134.42801612080166" width="395.52"><g transform="matrix(1,0,0,1,272.0881464117684,65.60351167940249)"><svg viewBox="0 0 395.52 95.69740288568258" height="95.69740288568258" width="395.52"><g id="textblocktransform"><svg viewBox="0 0 395.52 95.69740288568258" height="95.69740288568258" width="395.52" id="textblock"><g><svg viewBox="0 0 395.52 95.69740288568258" height="95.69740288568258" width="395.52"><g transform="matrix(1,0,0,1,0,0)"><svg width="395.52" viewBox="4.65 -32.25 135.14 32.7" height="95.69740288568258" data-palette-color="#29231d"><path d="M18.1-16.7Q24.9-15.35 24.9-8.95L24.9-8.95Q24.9-4.4 21.6-2.1 18.3 0.2 11.75 0.2L11.75 0.2Q7.35 0.2 4.7 0L4.7 0 4.65 0 4.9-9.65 4.65-32.05 13.55-32.1Q18.05-32.1 20.48-30.1 22.9-28.1 22.9-24.3L22.9-24.3Q22.9-21.6 21.65-19.65 20.4-17.7 18.1-16.7L18.1-16.7ZM18.8-23.85Q18.8-26.45 17.38-27.63 15.95-28.8 12.75-28.8L12.75-28.8 8.7-28.8 8.6-18.05 14.1-17.9Q18.8-19 18.8-23.85L18.8-23.85ZM12.35-3.15Q16.45-3.15 18.65-4.7 20.85-6.25 20.85-9.15L20.85-9.15Q20.85-14.05 14.7-14.75L14.7-14.75 8.55-14.7 8.5-10 8.65-3.3Q10.6-3.15 12.35-3.15L12.35-3.15ZM44.55-12.95Q47.85-7.5 52.85-0.95L52.85-0.95 52.8-0.45Q51 0.25 49.1 0.45L49.1 0.45 48.55 0.1Q44.45-6.05 41.2-11.9L41.2-11.9 35.35-11.9 35.35-10 35.55 0 31.5 0 31.75-9.65 31.5-32.05 41.3-32.1Q46-32.1 48.57-29.73 51.15-27.35 51.15-22.95L51.15-22.95Q51.15-19.65 49.42-17.03 47.7-14.4 44.55-12.95L44.55-12.95ZM35.55-28.65L35.4-15.3 41.4-15.15Q47-16.75 47-22.6L47-22.6Q47-25.65 45.35-27.18 43.7-28.7 40.4-28.8L40.4-28.8 35.55-28.65ZM71.69-32.05L82.39 0 78.3 0 77.55-3.2 75.75-8.7 68.55-8.85 62.05-8.7 60.09-3.4 59.3 0 55.3 0 67.05-32.05 71.69-32.05ZM68.89-12L74.64-12.1 69.44-27.9 69.09-27.9 63.3-12.1 68.89-12ZM99.74-32.25Q106.59-32.25 110.24-28.35 113.89-24.45 113.89-17.15L113.89-17.15Q113.89-8.7 109.94-4.2 105.99 0.3 98.59 0.3L98.59 0.3Q96.54 0.3 93.62 0.23 90.69 0.15 88.19 0L88.19 0 88.14 0 88.39-9.65 88.14-32.05 88.19-32.05 99.74-32.25ZM99.24-3.05Q104.34-3.05 107.07-6.38 109.79-9.7 109.79-16.3L109.79-16.3Q109.79-28.9 99.44-28.9L99.44-28.9Q96.29-28.9 92.19-28.7L92.19-28.7 91.99-10 92.14-3.35Q93.69-3.2 95.87-3.13 98.04-3.05 99.24-3.05L99.24-3.05ZM128.74-11.6L128.69-9.35 128.79 0 124.84 0 125.04-9.35 124.99-11.45 114.84-32.05 119.14-32.05 119.79-30.25 126.79-15.85 127.14-15.85 134.84-30.15 135.59-32.05 139.79-32.05 128.74-11.6Z" opacity="1" transform="matrix(1,0,0,1,0,0)" fill="#29231d" class="wordmark-text-0" data-fill-palette-color="primary" id="text-0"></path></svg></g></svg></g></svg></g></svg></g><g><svg viewBox="0 0 226.90442624448755 226.90442624448755" height="226.90442624448755" width="226.90442624448755"><g><svg></svg></g><g id="icon-0"><svg viewBox="0 0 226.90442624448755 226.90442624448755" height="226.90442624448755" width="226.90442624448755"><g><path d="M0 113.452c0-62.658 50.794-113.452 113.452-113.452 62.658 0 113.452 50.794 113.452 113.452 0 62.658-50.794 113.452-113.452 113.452-62.658 0-113.452-50.794-113.452-113.452zM113.452 218.274c57.892 0 104.822-46.93 104.822-104.822 0-57.892-46.93-104.822-104.822-104.822-57.892 0-104.822 46.93-104.822 104.822 0 57.892 46.93 104.822 104.822 104.822z" data-fill-palette-color="accent" fill="#97afaf" stroke="transparent"></path></g><g transform="matrix(1,0,0,1,48.18955761660514,54.795455581685054)"><svg viewBox="0 0 130.52531101127727 117.31351508111744" height="117.31351508111744" width="130.52531101127727"><g><svg xmlns="http://www.w3.org/2000/svg" xmlns:xlink="http://www.w3.org/1999/xlink" version="1.1" x="0" y="0" viewBox="0 5.5169999999999995 109 97.96700000000001" enable-background="new 0 0 109 109" xml:space="preserve" height="117.31351508111744" width="130.52531101127727" class="icon-cg-0" data-fill-palette-color="accent" id="cg-0"><path fill="#97afaf" d="M14.657 12.059c0 1.013-0.821 1.833-1.833 1.833s-1.833-0.821-1.833-1.833 0.821-1.833 1.833-1.833S14.657 11.046 14.657 12.059zM7.99 10.225c-1.013 0-1.833 0.821-1.833 1.833s0.821 1.833 1.833 1.833 1.833-0.821 1.833-1.833S9.002 10.225 7.99 10.225zM17.657 10.225c-1.013 0-1.833 0.821-1.833 1.833s0.821 1.833 1.833 1.833 1.833-0.821 1.833-1.833S18.669 10.225 17.657 10.225zM97.406 10.559H28.99c-0.829 0-1.5 0.671-1.5 1.5s0.671 1.5 1.5 1.5h68.416c0.83 0 1.5-0.671 1.5-1.5S98.236 10.559 97.406 10.559zM99 53.184H67.322v-28.5H99V53.184zM96 27.683H70.322v22.5H96V27.683zM109 10.517v68.667c0 2.761-2.238 5-5 5h-5H67.322h-2.014H50.322v-3h11.986v-53.5H13v2.934c-1.226 0.247-2.277 0.951-3 1.916v-7.849h55.309v56.5h2.014v-26.75H99v26.75h5c1.104 0 2-0.897 2-2V18.517H3v60.667c0 1.103 0.897 2 2 2h2.99v3H5c-2.761 0-5-2.239-5-5V10.517c0-2.761 2.239-5 5-5h99C106.762 5.517 109 7.755 109 10.517zM96 57.434H70.322v23.75H96V57.434zM106 10.517c0-1.103-0.896-2-2-2H5c-1.103 0-2 0.897-2 2v5h103V10.517zM48.072 37.171v61.313c0 2.761-2.238 5-5 5H15.156c-2.761 0-5-2.239-5-5V37.171c0-2.761 2.239-5 5-5h27.916C45.834 32.171 48.072 34.41 48.072 37.171zM13.156 37.171v3.596h31.916v-3.596c0-1.103-0.896-2-2-2H15.156C14.053 35.171 13.156 36.068 13.156 37.171zM39.322 90.017V75.93H18.823v14.086H39.322zM42.322 72.93v17.461h2.75V43.767H13.156v46.625h2.667V72.93H42.322zM45.072 98.484v-5.092H13.156v5.092c0 1.103 0.897 2 2 2h27.916C44.176 100.484 45.072 99.587 45.072 98.484zM29.115 94.808c-1.289 0-2.334 1.045-2.334 2.333s1.045 2.333 2.334 2.333c1.288 0 2.332-1.045 2.332-2.333S30.403 94.808 29.115 94.808zM27.281 38.767h3.666c0.277 0 0.5-0.224 0.5-0.5s-0.223-0.5-0.5-0.5h-3.666c-0.276 0-0.5 0.224-0.5 0.5S27.005 38.767 27.281 38.767zM42.322 71.017H15.823v-22.75h26.499V71.017zM39.322 51.267H18.823v16.75h20.499V51.267z" data-fill-palette-color="accent"></path></svg></g></svg></g></svg></g></svg></g></svg></g><defs></defs></svg><rect width="395.52" height="134.42801612080166" fill="none" stroke="none" visibility="hidden"></rect></g></svg></g></svg>